<svg width="20" height="21" viewBox="0 0 20 21" fill="none" xmlns="http://www.w3.org/2000/svg">
<path fill-rule="evenodd" clip-rule="evenodd" d="M6.25 0.151489H13.75C17.2013 0.151489 20 2.97851 20 6.46462V14.0404C20 17.5265 17.2013 20.3535 13.75 20.3535H6.25C2.79875 20.3535 0 17.5265 0 14.0404V6.46462C0 2.97851 2.79875 0.151489 6.25 0.151489ZM13.75 18.4596C16.1625 18.4596 18.125 16.4772 18.125 14.0404V6.46462C18.125 4.02775 16.1625 2.04543 13.75 2.04543H6.25C3.8375 2.04543 1.875 4.02775 1.875 6.46462V14.0404C1.875 16.4772 3.8375 18.4596 6.25 18.4596H13.75Z" fill="#666666"/>
</svg>
